<?xml version="1.0" standalone="no"?>
<!DOCTYPE svg PUBLIC "-//W3C//DTD SVG 20010904//EN"
 "http://www.w3.org/TR/2001/REC-SVG-20010904/DTD/svg10.dtd">
<svg version="1.0" xmlns="http://www.w3.org/2000/svg"
 width="762.000000pt" height="762.000000pt" viewBox="0 0 762.000000 762.000000"
 preserveAspectRatio="xMidYMid meet">
<metadata>
Created by potrace 1.11, written by Peter Selinger 2001-2013
</metadata>
<g transform="translate(0.000000,762.000000) scale(0.100000,-0.100000)"
fill="#000000" stroke="none">
<path d="M2755 7568 c-4 -29 -13 -60 -20 -68 -14 -16 -98 -192 -109 -227 -4
-12 -18 -41 -31 -65 -39 -69 -66 -130 -75 -173 -32 -147 -43 -189 -59 -218
-10 -17 -26 -57 -36 -87 -10 -30 -28 -86 -41 -125 -13 -38 -24 -88 -24 -110 0
-22 -14 -110 -30 -195 -17 -86 -30 -188 -30 -230 0 -41 -4 -101 -10 -133 -17
-109 -23 -350 -11 -463 7 -60 16 -219 20 -354 6 -182 13 -257 25 -290 8 -25
16 -63 16 -86 0 -28 6 -47 20 -59 15 -14 20 -31 20 -69 0 -28 7 -94 15 -146 8
-52 15 -112 15 -133 0 -22 14 -64 34 -105 30 -60 35 -81 45 -197 11 -132 24
-263 42 -437 5 -53 7 -130 5 -170 -21 -273 -28 -465 -35 -843 -6 -366 -9 -434
-23 -460 -8 -16 -42 -79 -73 -140 -131 -252 -135 -258 -215 -336 -43 -42 -88
-95 -100 -118 -11 -23 -63 -84 -114 -136 -52 -51 -109 -115 -127 -142 -18 -26
-38 -52 -45 -58 -6 -5 -23 -28 -38 -50 -14 -22 -64 -79 -111 -126 -81 -83 -85
-89 -85 -131 0 -28 9 -62 24 -91 44 -82 49 -115 24 -165 -37 -73 -103 -91
-193 -51 -25 11 -49 18 -51 16 -9 -9 17 -91 37 -115 10 -14 19 -30 19 -36 0
-7 39 -51 86 -99 59 -60 93 -87 109 -87 29 0 34 7 42 65 3 28 1 54 -6 68 -16
29 -1 69 34 94 15 10 46 33 71 51 42 30 47 32 82 21 23 -7 46 -23 60 -42 12
-18 60 -72 107 -121 95 -98 170 -197 180 -238 4 -14 20 -38 36 -54 21 -20 29
-37 29 -61 l0 -33 -282 -3 c-156 -1 530 -3 1525 -5 994 -1 1807 0 1807 3 0 3
-11 32 -24 64 -14 32 -27 87 -30 122 -3 35 -10 105 -17 154 -18 152 -16 195
15 247 34 58 80 94 169 130 38 15 95 42 126 58 31 16 119 50 196 76 77 25 146
51 153 56 15 13 16 80 1 95 -6 6 -15 33 -20 59 -16 87 35 124 159 116 63 -4
75 -8 93 -30 17 -22 20 -38 17 -112 l-2 -86 36 -37 c21 -20 41 -37 45 -37 11
0 88 -117 106 -160 8 -19 25 -71 37 -115 12 -44 31 -105 42 -135 43 -119 58
-309 34 -413 l-14 -57 228 0 c260 0 272 3 341 75 53 55 80 58 103 11 9 -19 16
-46 16 -60 l0 -26 100 0 c91 0 100 2 100 19 0 10 16 54 36 97 48 104 57 207
25 301 -12 34 -21 83 -21 108 0 54 -14 85 -38 85 -9 1 -24 15 -33 33 -90 184
-178 349 -212 401 -71 111 -113 188 -137 256 -13 36 -27 70 -31 75 -3 6 -10
26 -14 45 -4 19 -13 42 -20 50 -11 14 -22 73 -56 305 -6 44 -24 112 -40 150
-15 39 -35 96 -44 127 -9 31 -27 73 -41 93 -66 98 -109 234 -118 375 -14 219
-17 386 -8 418 14 47 31 247 42 482 11 243 20 289 69 385 22 44 41 87 41 95 0
8 7 28 15 44 11 20 15 60 15 133 0 116 29 265 61 319 16 26 19 52 19 150 0 83
6 143 20 198 10 43 22 104 26 135 3 31 11 64 16 74 5 10 13 39 18 65 12 60 60
328 67 367 2 17 13 77 23 135 27 145 40 319 40 516 0 187 -9 271 -52 489 -16
83 -36 189 -44 236 -7 47 -30 135 -49 195 -19 60 -35 117 -35 127 0 29 -28 88
-69 142 -21 27 -43 67 -50 87 -7 20 -32 73 -56 118 -24 45 -49 106 -56 136
l-12 54 -1928 0 -1927 0 -7 -52z m1469 -422 c3 -17 7 -130 10 -251 6 -225 15
-299 55 -405 11 -30 20 -66 21 -79 0 -14 5 -41 12 -60 17 -55 148 -319 164
-332 30 -25 59 -2 102 81 49 95 52 125 16 187 -54 91 -72 149 -63 200 5 26 16
55 26 65 29 33 49 22 88 -48 37 -66 37 -66 30 -152 l-6 -87 47 -25 c71 -37 92
-57 125 -119 16 -31 42 -72 57 -92 33 -44 118 -119 136 -119 7 0 23 11 35 24
22 23 23 30 16 104 -7 86 0 113 36 132 16 9 29 6 64 -14 50 -30 115 -113 115
-148 0 -14 4 -38 9 -54 5 -16 12 -41 15 -56 7 -30 67 -68 107 -68 28 0 69 26
94 58 16 22 20 45 23 121 1 52 4 96 6 99 2 2 13 -5 24 -16 15 -15 20 -38 24
-119 6 -108 22 -152 67 -190 14 -12 38 -22 52 -23 39 0 53 -23 46 -73 -7 -49
20 -161 61 -252 23 -51 27 -73 26 -145 -1 -181 -34 -393 -80 -524 -17 -51 -24
-90 -24 -148 0 -43 -9 -120 -20 -171 -10 -50 -24 -132 -31 -182 -15 -125 -69
-237 -155 -323 -34 -34 -78 -69 -96 -76 -19 -8 -63 -36 -98 -62 -36 -27 -85
-59 -110 -71 -25 -13 -65 -37 -90 -53 -68 -45 -104 -59 -193 -77 -45 -9 -109
-26 -142 -39 -33 -13 -82 -29 -110 -34 -30 -7 -61 -22 -78 -38 -27 -26 -33
-27 -153 -31 -115 -3 -127 -1 -147 17 -13 12 -69 33 -137 51 -63 16 -135 37
-160 46 -25 9 -90 27 -145 40 -55 13 -138 40 -185 60 -47 21 -104 43 -126 50
-55 18 -102 42 -137 71 -15 13 -47 32 -70 42 -56 25 -187 120 -263 190 -33 32
-80 72 -104 91 -29 23 -53 56 -76 105 -31 65 -34 78 -34 164 0 102 29 245 58
290 12 19 17 56 20 150 l4 124 62 28 c33 15 70 31 82 36 12 5 49 41 83 81 41
49 78 80 114 98 28 15 71 42 94 61 38 31 47 34 111 34 80 0 129 -14 137 -40
14 -45 93 -65 155 -40 52 22 51 92 -4 168 -64 90 -78 102 -133 112 -55 10 -94
29 -128 64 -13 13 -15 21 -7 24 47 15 -53 69 -108 57 -41 -9 -78 -61 -62 -86
12 -18 8 -19 -64 -19 -105 0 -136 -19 -98 -61 24 -26 11 -71 -19 -67 -12 2
-27 14 -34 28 -9 18 -13 20 -13 8 0 -10 -15 -24 -35 -34 -35 -16 -36 -18 -29
-59 9 -62 -40 -144 -87 -145 -26 0 -42 70 -28 125 11 42 9 50 -19 113 -26 58
-31 86 -37 184 -9 134 -3 152 55 168 61 16 103 59 124 125 9 31 24 59 32 62
26 10 64 -19 127 -94 33 -40 67 -73 76 -73 10 0 30 13 45 29 26 27 27 31 25
137 -3 104 -1 112 29 175 17 37 39 72 47 79 8 7 15 18 15 25 0 8 11 22 25 32
l26 18 -21 42 c-30 63 -27 122 10 156 l29 28 12 -43 c10 -40 9 -57 -7 -145 -8
-42 0 -73 28 -109 13 -15 28 -42 34 -59 38 -103 79 -193 97 -212 44 -49 99
-11 116 81 6 32 18 73 27 90 31 59 42 123 36 198 -3 40 -5 87 -5 103 1 49 53
245 84 315 16 36 40 101 54 145 13 44 36 97 50 117 14 20 25 40 25 44 0 14 53
119 68 137 15 17 17 17 29 1 7 -10 15 -31 17 -48z m1624 -1068 c-2 -12 -9 -23
-15 -26 -20 -6 -27 26 -13 56 10 24 13 25 21 9 6 -10 9 -27 7 -39z m157 -338
c7 -11 -5 -40 -15 -40 -16 0 -39 31 -34 44 5 14 40 11 49 -4z m-912 -2272 c12
-10 15 -20 9 -40 -9 -33 -68 -98 -89 -98 -21 0 -123 -57 -153 -85 -14 -13 -46
-33 -72 -44 -26 -11 -66 -39 -90 -62 -24 -23 -60 -53 -81 -66 -21 -13 -82 -66
-135 -118 -93 -91 -112 -102 -146 -89 -17 7 -22 54 -7 70 5 5 16 29 25 53 20
60 11 247 -15 298 -18 35 -18 36 7 68 14 18 32 36 40 39 16 6 214 -18 287 -35
27 -6 61 -9 78 -5 40 8 139 55 165 78 43 38 146 59 177 36z m89 -2229 c-12
-11 -75 -29 -80 -24 -3 3 0 5 6 5 7 0 12 6 12 14 0 7 10 20 22 28 20 14 24 14
35 -1 6 -9 9 -19 5 -22z m-121 -100 c18 -18 20 -28 14 -78 -8 -65 -8 -65 -32
-57 -15 5 -18 13 -15 35 3 23 -1 30 -17 36 -26 8 -27 38 -4 65 22 25 28 25 54
-1z m213 -55 c19 -7 21 -34 3 -58 -12 -17 -14 -17 -37 2 -24 20 -25 20 -6 41
22 24 19 23 40 15z"/>
<path d="M4950 5600 c0 -5 5 -10 10 -10 6 0 10 5 10 10 0 6 -4 10 -10 10 -5 0
-10 -4 -10 -10z"/>
<path d="M4710 5496 c-26 -14 -43 -30 -41 -38 8 -26 2 -51 -18 -72 -27 -29
-30 -139 -5 -175 29 -40 141 -22 291 47 l51 23 122 -52 c101 -43 135 -64 206
-124 46 -40 94 -85 106 -100 27 -35 76 -55 133 -55 40 0 47 4 65 33 26 42 25
77 -4 119 -13 20 -36 56 -51 81 -14 26 -49 77 -76 114 -41 56 -62 74 -117 102
-37 18 -78 44 -91 57 -37 37 -84 44 -277 44 -99 -1 -195 4 -214 9 -19 6 -35
11 -35 11 0 0 -20 -11 -45 -24z"/>
<path d="M4979 4536 c-4 -4 -55 -10 -404 -48 -221 -24 -496 -15 -755 24 -41 6
-111 12 -155 12 -74 1 -83 -1 -119 -29 l-39 -29 6 -76 c4 -60 14 -98 51 -185
26 -61 61 -129 79 -152 38 -50 138 -139 167 -148 11 -3 20 -10 20 -16 0 -9 17
-17 166 -79 88 -36 94 -37 261 -44 141 -6 188 -5 265 9 98 18 233 60 258 80 8
6 35 17 60 24 46 14 66 27 153 100 54 46 119 141 169 246 54 115 31 245 -52
286 -33 16 -123 33 -131 25z"/>
<path d="M13 6693 c-10 -4 -13 -284 -13 -1352 l0 -1348 49 9 c30 5 58 5 74 -1
35 -14 77 -97 77 -153 0 -44 31 -116 56 -131 8 -4 14 -17 14 -28 0 -11 7 -27
15 -36 10 -10 13 -23 9 -37 -4 -11 -6 -95 -5 -184 2 -150 5 -172 32 -255 16
-50 29 -97 29 -106 0 -8 9 -33 19 -55 14 -29 22 -82 30 -181 6 -77 16 -157 23
-178 10 -32 9 -46 -7 -90 -10 -29 -23 -59 -30 -67 -33 -42 -53 -89 -42 -98 30
-22 110 -44 142 -38 30 6 37 3 65 -31 35 -42 80 -169 70 -197 -9 -27 11 -126
26 -126 14 0 39 104 28 121 -10 16 45 150 72 176 19 17 29 20 52 13 73 -20 89
-39 112 -129 16 -58 17 -76 7 -122 -12 -51 -15 -55 -72 -87 -87 -48 -95 -58
-95 -109 0 -35 7 -52 33 -83 54 -66 83 -51 108 58 5 26 22 62 37 82 66 85 85
144 78 240 -2 36 -5 70 -5 77 -1 6 -13 26 -29 44 -15 18 -38 55 -52 83 -34 69
-61 81 -177 78 -85 -2 -97 0 -151 27 -32 16 -64 36 -71 45 -25 30 -34 93 -37
273 -2 131 -7 191 -17 210 -8 16 -18 46 -21 68 -4 21 -17 57 -29 80 -18 33
-23 68 -32 210 -10 164 -12 173 -45 242 -19 40 -41 73 -47 73 -22 0 -19 163 3
198 14 21 13 27 -17 80 -20 36 -35 79 -40 117 -16 127 -29 202 -44 249 -8 27
-15 63 -15 81 0 17 -12 65 -26 106 -43 119 -33 253 22 304 13 12 24 28 24 34
0 6 16 21 34 32 38 22 36 13 56 197 11 97 46 260 60 277 10 13 34 102 61 224
12 52 34 119 51 150 28 52 31 67 40 201 5 80 10 165 12 190 5 56 -9 116 -29
124 -8 3 -15 12 -15 20 0 9 -17 20 -42 27 -24 6 -48 13 -54 14 -6 2 -22 49
-35 105 l-23 102 -80 81 c-45 44 -95 86 -113 93 -32 14 -86 17 -110 7z"/>
<path d="M312 4847 c-24 -28 14 -99 49 -90 18 5 24 24 19 68 -4 34 -47 48 -68
22z"/>
<path d="M7387 4829 c-6 -4 -39 -9 -72 -12 -33 -3 -72 -10 -86 -15 -14 -6 -32
-7 -39 -2 -7 5 -22 3 -32 -3 -25 -15 -79 -95 -69 -101 4 -3 26 -8 48 -12 33
-5 43 -3 54 13 18 23 51 38 121 52 31 7 62 19 68 27 7 7 18 14 26 14 7 0 17 8
23 18 9 16 11 16 23 0 9 -11 30 -17 68 -18 93 -4 100 -2 100 23 0 21 -3 22
-110 22 -61 1 -116 -2 -123 -6z"/>
<path d="M6997 4673 c-4 -3 -7 -19 -7 -35 0 -21 4 -27 18 -25 29 5 42 17 42
43 0 18 -5 24 -23 24 -13 0 -27 -3 -30 -7z"/>
<path d="M7420 4507 c-25 -5 -47 -12 -50 -17 -9 -13 -48 -30 -69 -30 -23 0
-79 -55 -87 -85 -2 -11 0 -60 6 -110 6 -49 14 -158 19 -241 11 -187 27 -267
52 -259 14 5 18 -1 21 -22 2 -21 17 -37 58 -65 30 -20 63 -37 72 -37 9 -1 43
-8 75 -16 95 -25 103 -23 103 30 0 42 -2 45 -19 35 -15 -8 -36 -1 -100 31 -45
22 -81 44 -81 49 0 4 -17 30 -38 57 -45 56 -68 126 -78 238 -8 81 -6 326 3
335 2 2 8 -2 12 -9 7 -10 13 -8 28 8 17 18 36 23 104 27 46 3 103 1 127 -4
l42 -10 0 52 0 51 -78 0 c-42 1 -97 -3 -122 -8z"/>
<path d="M7604 4115 c-3 -8 -1 -27 4 -42 10 -27 10 -26 11 15 1 43 -5 54 -15
27z"/>
<path d="M6869 3733 c-6 -30 -7 -92 -3 -113 5 -22 7 -23 15 -7 6 9 7 21 4 27
-3 5 -6 30 -7 55 0 40 -5 59 -9 38z"/>
<path d="M6911 3626 l-22 -23 26 -49 c52 -98 82 -139 121 -166 27 -18 38 -33
36 -46 -2 -12 7 -28 22 -39 14 -11 28 -31 31 -45 4 -14 24 -43 46 -64 l40 -39
82 1 c117 2 300 18 315 27 6 5 12 18 12 30 0 22 -2 22 -157 22 -134 1 -164 4
-197 20 -21 10 -55 21 -75 24 -34 6 -36 9 -39 46 -3 38 -23 73 -66 120 -12 13
-37 53 -55 89 -18 36 -36 66 -41 66 -4 0 -18 11 -32 25 l-25 25 -22 -24z"/>
<path d="M2070 3365 c0 -8 5 -15 10 -15 6 0 10 7 10 15 0 8 -4 15 -10 15 -5 0
-10 -7 -10 -15z"/>
<path d="M1 2776 c-1 -442 0 -468 17 -461 9 4 26 9 37 12 11 3 29 9 40 14 11
5 52 22 90 37 71 29 84 44 43 50 -47 6 -107 42 -142 85 l-36 44 2 229 c2 188
-1 239 -15 284 -9 30 -20 82 -25 115 -7 42 -10 -82 -11 -409z"/>
<path d="M791 1514 c-52 -66 -74 -131 -76 -229 -2 -55 1 -98 7 -101 5 -4 20
-2 31 4 32 15 118 37 147 37 23 0 25 4 23 40 -3 89 -25 181 -51 225 -33 54
-53 60 -81 24z"/>
<path d="M982 1178 c-20 -20 -15 -91 8 -105 27 -17 33 -3 25 62 -8 57 -13 63
-33 43z"/>
<path d="M586 1135 c-48 -25 -102 -45 -120 -45 -17 0 -49 -5 -71 -11 -165 -42
-203 -46 -290 -34 -22 4 -35 3 -29 -2 6 -4 14 -21 18 -38 4 -16 17 -40 28 -52
43 -46 79 -323 59 -459 -6 -44 -11 -112 -11 -152 0 -60 -5 -82 -32 -136 -17
-36 -42 -70 -54 -76 -12 -7 -30 -30 -40 -51 -9 -22 -23 -44 -31 -50 -27 -23
-11 -29 82 -29 l94 0 16 52 c8 28 15 84 15 123 0 45 5 78 14 91 22 31 29 145
17 298 -10 139 1 267 29 341 15 39 71 59 144 51 77 -8 182 -59 202 -99 15 -27
16 -28 28 -11 7 11 16 51 20 89 3 39 14 101 23 138 17 67 13 95 -13 104 -5 2
-49 -17 -98 -42z"/>
<path d="M0 1102 c0 -27 4 -32 25 -32 14 0 25 4 25 8 0 5 -11 19 -25 32 l-25
23 0 -31z"/>
<path d="M7533 1123 c-7 -2 -13 -9 -13 -15 0 -5 -11 -24 -25 -42 -28 -37 -33
-91 -10 -99 18 -8 47 33 74 104 12 30 21 55 21 57 0 4 -34 1 -47 -5z"/>
<path d="M7473 905 c0 -22 2 -30 4 -17 2 12 2 30 0 40 -3 9 -5 -1 -4 -23z"/>
<path d="M1167 856 c-7 -18 8 -83 22 -100 7 -8 25 -19 41 -26 16 -7 32 -22 36
-33 8 -26 74 -88 85 -81 17 10 9 29 -31 73 -22 24 -40 49 -40 56 0 7 -13 29
-30 50 -16 21 -30 41 -30 45 0 4 -11 12 -24 18 -19 8 -25 8 -29 -2z"/>
<path d="M7420 838 c-20 -33 -25 -82 -14 -125 6 -21 7 -21 25 -4 13 12 20 36
24 83 5 78 -6 93 -35 46z"/>
<path d="M6072 654 c-50 -35 -59 -135 -19 -210 19 -36 39 -47 73 -38 32 8 43
30 50 101 5 48 2 68 -16 111 -25 57 -46 66 -88 36z"/>
<path d="M7497 538 c7 -48 33 -97 86 -158 l37 -44 0 60 c0 40 -6 67 -18 85
-17 26 -95 99 -105 99 -3 0 -3 -19 0 -42z"/>
<path d="M637 254 c-4 -4 -7 -31 -7 -59 0 -35 -5 -57 -15 -65 -10 -8 -15 -31
-15 -71 l0 -59 69 0 69 0 -5 47 c-4 42 -39 152 -62 192 -9 18 -25 24 -34 15z"/>
</g>
</svg>
